# xmcd CD database file
#
# Track frame offsets:
#	150
#	19611
#	39921
#	58724
#	77941
#	95932
#	111771
#	127814
#	144070
#	160734
#	180597
#	197627
#	213804
#	230739
#	249929
#	268533
#	288384
#
# Disc length: 4124 seconds
#
# Revision: 0
# Processed by: cddbd v1.5.1PL0 Copyright (c) Steve Scherf et al.
# Submitted via: ACXtractor (MTCDDB.DLL V2003.12.21)
#
DISCID=e1101a11
DTITLE=Various Artist - Radioactive Rhythm Crossover Series May 2000
DYEAR=2000
DGENRE=R&B
TTITLE0=Jessica Simpson ft. Nick Lachey/Where Are You
TTITLE1=Eiffel 65/Move Your Body
TTITLE2=Mya ft. Jadakiss/Best Of Me
TTITLE3=Cypress Hill/Rap Superstar
TTITLE4=En Vogue/Riddle
TTITLE5=Sole ft. Ginuwine/It Wasn't Me
TTITLE6=Jonah/Ssst ... Listen (Be Quiet)
TTITLE7=Mary J. Blige/Give Me You
TTITLE8=Blaque/I Do
TTITLE9=Nelly/(Holy Sh*t) Country Grammar
TTITLE10=Drag - On ft. DMX/My People Die For Me
TTITLE11=Bloodhound Gang/The Bad Touch
TTITLE12=Destiny's Child/Jumpin, Jumpin'
TTITLE13=Nu Flavor/3 Little Words
TTITLE14=Black Rob/Whoa!
TTITLE15=Rah Digga ft. Busta Rhymes/Imperial
TTITLE16=Vitamin C/Graduation (Friends For Ever)
EXTD=ID3G:  14 YEAR: 2000
EXTT0=
EXTT1=
EXTT2=
EXTT3=
EXTT4=
EXTT5=
EXTT6=
EXTT7=
EXTT8=
EXTT9=
EXTT10=
EXTT11=
EXTT12=
EXTT13=
EXTT14=
EXTT15=
EXTT16=
PLAYORDER=
